<?xml version="1.0" encoding="utf-8" standalone="no"?>
<!DOCTYPE svg PUBLIC "-//W3C//DTD SVG 1.1//EN"
  "http://www.w3.org/Graphics/SVG/1.1/DTD/svg11.dtd">
<svg xmlns:xlink="http://www.w3.org/1999/xlink" width="691.2pt" height="345.6pt" viewBox="0 0 691.2 345.6" xmlns="http://www.w3.org/2000/svg" version="1.1">
 <metadata>
  <rdf:RDF xmlns:dc="http://purl.org/dc/elements/1.1/" xmlns:cc="http://creativecommons.org/ns#" xmlns:rdf="http://www.w3.org/1999/02/22-rdf-syntax-ns#">
   <cc:Work>
    <dc:type rdf:resource="http://purl.org/dc/dcmitype/StillImage"/>
    <dc:date>2023-08-03T16:56:36.211951</dc:date>
    <dc:format>image/svg+xml</dc:format>
    <dc:creator>
     <cc:Agent>
      <dc:title>Matplotlib v3.5.2, https://matplotlib.org/</dc:title>
     </cc:Agent>
    </dc:creator>
   </cc:Work>
  </rdf:RDF>
 </metadata>
 <defs>
  <style type="text/css">*{stroke-linejoin: round; stroke-linecap: butt}</style>
 </defs>
 <g id="figure_1">
  <g id="patch_1">
   <path d="M 0 345.6 
L 691.2 345.6 
L 691.2 0 
L 0 0 
z
" style="fill: #ffffff"/>
  </g>
  <g id="axes_1">
   <g id="patch_2">
    <path d="M 86.4 307.584 
L 622.08 307.584 
L 622.08 41.472 
L 86.4 41.472 
z
" style="fill: #ffffff"/>
   </g>
   <g id="matplotlib.axis_1">
    <g id="xtick_1">
     <g id="line2d_1">
      <defs>
       <path id="m687a7a2c48" d="M 0 0 
L 0 3.5 
" style="stroke: #000000; stroke-width: 0.8"/>
      </defs>
      <g>
       <use xlink:href="#m687a7a2c48" x="164.012727" y="307.584" style="stroke: #000000; stroke-width: 0.8"/>
      </g>
     </g>
     <g id="text_1">
      <!-- −4 -->
      <g transform="translate(156.641634 322.182437)scale(0.1 -0.1)">
       <defs>
        <path id="DejaVuSans-2212" d="M 678 2272 
L 4684 2272 
L 4684 1741 
L 678 1741 
L 678 2272 
z
" transform="scale(0.015625)"/>
        <path id="DejaVuSans-34" d="M 2419 4116 
L 825 1625 
L 2419 1625 
L 2419 4116 
z
M 2253 4666 
L 3047 4666 
L 3047 1625 
L 3713 1625 
L 3713 1100 
L 3047 1100 
L 3047 0 
L 2419 0 
L 2419 1100 
L 313 1100 
L 313 1709 
L 2253 4666 
z
" transform="scale(0.015625)"/>
       </defs>
       <use xlink:href="#DejaVuSans-2212"/>
       <use xlink:href="#DejaVuSans-34" x="83.789062"/>
      </g>
     </g>
    </g>
    <g id="xtick_2">
     <g id="line2d_2">
      <g>
       <use xlink:href="#m687a7a2c48" x="259.126364" y="307.584" style="stroke: #000000; stroke-width: 0.8"/>
      </g>
     </g>
     <g id="text_2">
      <!-- −2 -->
      <g transform="translate(251.75527 322.182437)scale(0.1 -0.1)">
       <defs>
        <path id="DejaVuSans-32" d="M 1228 531 
L 3431 531 
L 3431 0 
L 469 0 
L 469 531 
Q 828 903 1448 1529 
Q 2069 2156 2228 2338 
Q 2531 2678 2651 2914 
Q 2772 3150 2772 3378 
Q 2772 3750 2511 3984 
Q 2250 4219 1831 4219 
Q 1534 4219 1204 4116 
Q 875 4013 500 3803 
L 500 4441 
Q 881 4594 1212 4672 
Q 1544 4750 1819 4750 
Q 2544 4750 2975 4387 
Q 3406 4025 3406 3419 
Q 3406 3131 3298 2873 
Q 3191 2616 2906 2266 
Q 2828 2175 2409 1742 
Q 1991 1309 1228 531 
z
" transform="scale(0.015625)"/>
       </defs>
       <use xlink:href="#DejaVuSans-2212"/>
       <use xlink:href="#DejaVuSans-32" x="83.789062"/>
      </g>
     </g>
    </g>
    <g id="xtick_3">
     <g id="line2d_3">
      <g>
       <use xlink:href="#m687a7a2c48" x="354.24" y="307.584" style="stroke: #000000; stroke-width: 0.8"/>
      </g>
     </g>
     <g id="text_3">
      <!-- 0 -->
      <g transform="translate(351.05875 322.182437)scale(0.1 -0.1)">
       <defs>
        <path id="DejaVuSans-30" d="M 2034 4250 
Q 1547 4250 1301 3770 
Q 1056 3291 1056 2328 
Q 1056 1369 1301 889 
Q 1547 409 2034 409 
Q 2525 409 2770 889 
Q 3016 1369 3016 2328 
Q 3016 3291 2770 3770 
Q 2525 4250 2034 4250 
z
M 2034 4750 
Q 2819 4750 3233 4129 
Q 3647 3509 3647 2328 
Q 3647 1150 3233 529 
Q 2819 -91 2034 -91 
Q 1250 -91 836 529 
Q 422 1150 422 2328 
Q 422 3509 836 4129 
Q 1250 4750 2034 4750 
z
" transform="scale(0.015625)"/>
       </defs>
       <use xlink:href="#DejaVuSans-30"/>
      </g>
     </g>
    </g>
    <g id="xtick_4">
     <g id="line2d_4">
      <g>
       <use xlink:href="#m687a7a2c48" x="449.353636" y="307.584" style="stroke: #000000; stroke-width: 0.8"/>
      </g>
     </g>
     <g id="text_4">
      <!-- 2 -->
      <g transform="translate(446.172386 322.182437)scale(0.1 -0.1)">
       <use xlink:href="#DejaVuSans-32"/>
      </g>
     </g>
    </g>
    <g id="xtick_5">
     <g id="line2d_5">
      <g>
       <use xlink:href="#m687a7a2c48" x="544.467273" y="307.584" style="stroke: #000000; stroke-width: 0.8"/>
      </g>
     </g>
     <g id="text_5">
      <!-- 4 -->
      <g transform="translate(541.286023 322.182437)scale(0.1 -0.1)">
       <use xlink:href="#DejaVuSans-34"/>
      </g>
     </g>
    </g>
    <g id="text_6">
     <!-- X -->
     <g transform="translate(350.815 335.860562)scale(0.1 -0.1)">
      <defs>
       <path id="DejaVuSans-58" d="M 403 4666 
L 1081 4666 
L 2241 2931 
L 3406 4666 
L 4084 4666 
L 2584 2425 
L 4184 0 
L 3506 0 
L 2194 1984 
L 872 0 
L 191 0 
L 1856 2491 
L 403 4666 
z
" transform="scale(0.015625)"/>
      </defs>
      <use xlink:href="#DejaVuSans-58"/>
     </g>
    </g>
   </g>
   <g id="matplotlib.axis_2">
    <g id="ytick_1">
     <g id="line2d_6">
      <defs>
       <path id="me0aab1264a" d="M 0 0 
L -3.5 0 
" style="stroke: #000000; stroke-width: 0.8"/>
      </defs>
      <g>
       <use xlink:href="#me0aab1264a" x="86.4" y="295.488003" style="stroke: #000000; stroke-width: 0.8"/>
      </g>
     </g>
     <g id="text_7">
      <!-- 0 -->
      <g transform="translate(73.0375 299.287222)scale(0.1 -0.1)">
       <use xlink:href="#DejaVuSans-30"/>
      </g>
     </g>
    </g>
    <g id="ytick_2">
     <g id="line2d_7">
      <g>
       <use xlink:href="#me0aab1264a" x="86.4" y="265.512752" style="stroke: #000000; stroke-width: 0.8"/>
      </g>
     </g>
     <g id="text_8">
      <!-- 5 -->
      <g transform="translate(73.0375 269.311971)scale(0.1 -0.1)">
       <defs>
        <path id="DejaVuSans-35" d="M 691 4666 
L 3169 4666 
L 3169 4134 
L 1269 4134 
L 1269 2991 
Q 1406 3038 1543 3061 
Q 1681 3084 1819 3084 
Q 2600 3084 3056 2656 
Q 3513 2228 3513 1497 
Q 3513 744 3044 326 
Q 2575 -91 1722 -91 
Q 1428 -91 1123 -41 
Q 819 9 494 109 
L 494 744 
Q 775 591 1075 516 
Q 1375 441 1709 441 
Q 2250 441 2565 725 
Q 2881 1009 2881 1497 
Q 2881 1984 2565 2268 
Q 2250 2553 1709 2553 
Q 1456 2553 1204 2497 
Q 953 2441 691 2322 
L 691 4666 
z
" transform="scale(0.015625)"/>
       </defs>
       <use xlink:href="#DejaVuSans-35"/>
      </g>
     </g>
    </g>
    <g id="ytick_3">
     <g id="line2d_8">
      <g>
       <use xlink:href="#me0aab1264a" x="86.4" y="235.5375" style="stroke: #000000; stroke-width: 0.8"/>
      </g>
     </g>
     <g id="text_9">
      <!-- 10 -->
      <g transform="translate(66.675 239.336719)scale(0.1 -0.1)">
       <defs>
        <path id="DejaVuSans-31" d="M 794 531 
L 1825 531 
L 1825 4091 
L 703 3866 
L 703 4441 
L 1819 4666 
L 2450 4666 
L 2450 531 
L 3481 531 
L 3481 0 
L 794 0 
L 794 531 
z
" transform="scale(0.015625)"/>
       </defs>
       <use xlink:href="#DejaVuSans-31"/>
       <use xlink:href="#DejaVuSans-30" x="63.623047"/>
      </g>
     </g>
    </g>
    <g id="ytick_4">
     <g id="line2d_9">
      <g>
       <use xlink:href="#me0aab1264a" x="86.4" y="205.562249" style="stroke: #000000; stroke-width: 0.8"/>
      </g>
     </g>
     <g id="text_10">
      <!-- 15 -->
      <g transform="translate(66.675 209.361468)scale(0.1 -0.1)">
       <use xlink:href="#DejaVuSans-31"/>
       <use xlink:href="#DejaVuSans-35" x="63.623047"/>
      </g>
     </g>
    </g>
    <g id="ytick_5">
     <g id="line2d_10">
      <g>
       <use xlink:href="#me0aab1264a" x="86.4" y="175.586998" style="stroke: #000000; stroke-width: 0.8"/>
      </g>
     </g>
     <g id="text_11">
      <!-- 20 -->
      <g transform="translate(66.675 179.386217)scale(0.1 -0.1)">
       <use xlink:href="#DejaVuSans-32"/>
       <use xlink:href="#DejaVuSans-30" x="63.623047"/>
      </g>
     </g>
    </g>
    <g id="ytick_6">
     <g id="line2d_11">
      <g>
       <use xlink:href="#me0aab1264a" x="86.4" y="145.611746" style="stroke: #000000; stroke-width: 0.8"/>
      </g>
     </g>
     <g id="text_12">
      <!-- 25 -->
      <g transform="translate(66.675 149.410965)scale(0.1 -0.1)">
       <use xlink:href="#DejaVuSans-32"/>
       <use xlink:href="#DejaVuSans-35" x="63.623047"/>
      </g>
     </g>
    </g>
    <g id="ytick_7">
     <g id="line2d_12">
      <g>
       <use xlink:href="#me0aab1264a" x="86.4" y="115.636495" style="stroke: #000000; stroke-width: 0.8"/>
      </g>
     </g>
     <g id="text_13">
      <!-- 30 -->
      <g transform="translate(66.675 119.435714)scale(0.1 -0.1)">
       <defs>
        <path id="DejaVuSans-33" d="M 2597 2516 
Q 3050 2419 3304 2112 
Q 3559 1806 3559 1356 
Q 3559 666 3084 287 
Q 2609 -91 1734 -91 
Q 1441 -91 1130 -33 
Q 819 25 488 141 
L 488 750 
Q 750 597 1062 519 
Q 1375 441 1716 441 
Q 2309 441 2620 675 
Q 2931 909 2931 1356 
Q 2931 1769 2642 2001 
Q 2353 2234 1838 2234 
L 1294 2234 
L 1294 2753 
L 1863 2753 
Q 2328 2753 2575 2939 
Q 2822 3125 2822 3475 
Q 2822 3834 2567 4026 
Q 2313 4219 1838 4219 
Q 1578 4219 1281 4162 
Q 984 4106 628 3988 
L 628 4550 
Q 988 4650 1302 4700 
Q 1616 4750 1894 4750 
Q 2613 4750 3031 4423 
Q 3450 4097 3450 3541 
Q 3450 3153 3228 2886 
Q 3006 2619 2597 2516 
z
" transform="scale(0.015625)"/>
       </defs>
       <use xlink:href="#DejaVuSans-33"/>
       <use xlink:href="#DejaVuSans-30" x="63.623047"/>
      </g>
     </g>
    </g>
    <g id="ytick_8">
     <g id="line2d_13">
      <g>
       <use xlink:href="#me0aab1264a" x="86.4" y="85.661244" style="stroke: #000000; stroke-width: 0.8"/>
      </g>
     </g>
     <g id="text_14">
      <!-- 35 -->
      <g transform="translate(66.675 89.460462)scale(0.1 -0.1)">
       <use xlink:href="#DejaVuSans-33"/>
       <use xlink:href="#DejaVuSans-35" x="63.623047"/>
      </g>
     </g>
    </g>
    <g id="ytick_9">
     <g id="line2d_14">
      <g>
       <use xlink:href="#me0aab1264a" x="86.4" y="55.685992" style="stroke: #000000; stroke-width: 0.8"/>
      </g>
     </g>
     <g id="text_15">
      <!-- 40 -->
      <g transform="translate(66.675 59.485211)scale(0.1 -0.1)">
       <use xlink:href="#DejaVuSans-34"/>
       <use xlink:href="#DejaVuSans-30" x="63.623047"/>
      </g>
     </g>
    </g>
    <g id="text_16">
     <!-- Y -->
     <g transform="translate(60.595312 177.581906)rotate(-90)scale(0.1 -0.1)">
      <defs>
       <path id="DejaVuSans-59" d="M -13 4666 
L 666 4666 
L 1959 2747 
L 3244 4666 
L 3922 4666 
L 2272 2222 
L 2272 0 
L 1638 0 
L 1638 2222 
L -13 4666 
z
" transform="scale(0.015625)"/>
      </defs>
      <use xlink:href="#DejaVuSans-59"/>
     </g>
    </g>
   </g>
   <g id="line2d_15">
    <path d="M 110.749091 122.08289 
L 112.112654 130.484244 
L 113.286292 136.409174 
L 114.308964 140.497412 
L 115.200149 143.20133 
L 115.969588 144.874353 
L 116.62702 145.812054 
L 117.187055 146.252527 
L 117.674042 146.368674 
L 118.136679 146.250981 
L 118.628536 145.885146 
L 119.18857 145.171798 
L 119.836263 143.96258 
L 120.591092 142.052427 
L 121.467668 139.193773 
L 122.49034 135.057098 
L 123.698067 129.190027 
L 125.168767 120.870208 
L 127.150803 108.260612 
L 132.157026 75.86823 
L 133.681294 67.738608 
L 134.92311 62.250748 
L 135.970131 58.566246 
L 136.861317 56.185294 
L 137.621016 54.74221 
L 138.263839 53.961499 
L 138.804394 53.626166 
L 139.281641 53.578225 
L 139.749148 53.75928 
L 140.250744 54.206007 
L 140.820519 55.031101 
L 141.477951 56.401518 
L 142.23278 58.521604 
L 143.099617 61.660954 
L 144.0882 66.125117 
L 145.218009 72.308521 
L 146.528003 80.781313 
L 148.08636 92.40076 
L 150.083006 109.0873 
L 157.003087 168.444418 
L 158.551704 179.041749 
L 159.856829 186.517969 
L 160.981768 191.743245 
L 161.960611 195.296531 
L 162.807968 197.590523 
L 163.533578 198.963288 
L 164.152051 199.697497 
L 164.677997 200.005515 
L 165.150374 200.035151 
L 165.617881 199.836065 
L 166.129217 199.361161 
L 166.718471 198.486488 
L 167.400252 197.048318 
L 168.194041 194.820026 
L 169.114445 191.532558 
L 170.185816 186.833755 
L 171.451982 180.223089 
L 173.010339 170.82624 
L 175.201779 156.106591 
L 179.375255 127.928525 
L 181.001791 118.57856 
L 182.311785 112.26798 
L 183.417244 107.971784 
L 184.357129 105.151203 
L 185.160657 103.392279 
L 185.842438 102.39398 
L 186.417082 101.915298 
L 186.913809 101.773701 
L 187.376446 101.8712 
L 187.858563 102.209498 
L 188.403988 102.883846 
L 189.027331 104.032252 
L 189.748071 105.856972 
L 190.575949 108.596679 
L 191.520703 112.533781 
L 192.606683 118.065276 
L 193.858239 125.654536 
L 195.338679 136.073646 
L 197.194098 150.820795 
L 200.305943 177.675883 
L 203.247342 202.322493 
L 205.034584 215.48546 
L 206.476064 224.541282 
L 207.703271 230.915845 
L 208.764902 235.321462 
L 209.680437 238.236622 
L 210.474225 240.074264 
L 211.151136 241.124039 
L 211.725781 241.637885 
L 212.222507 241.80235 
L 212.685144 241.723031 
L 213.167261 241.403532 
L 213.707816 240.761275 
L 214.336029 239.644573 
L 215.066509 237.859611 
L 215.913866 235.161476 
L 216.892709 231.258396 
L 218.037128 225.72653 
L 219.395821 217.996822 
L 221.105144 206.89648 
L 223.866359 187.255142 
L 226.822368 166.728377 
L 228.507342 156.544616 
L 229.856295 149.676257 
L 230.990974 144.982845 
L 231.960078 141.858059 
L 232.787955 139.883492 
L 233.494086 138.729621 
L 234.088209 138.148142 
L 234.599545 137.937557 
L 235.067053 137.981952 
L 235.5443 138.261759 
L 236.070245 138.84458 
L 236.674109 139.867006 
L 237.37537 141.522809 
L 238.178898 144.025719 
L 239.104172 147.680233 
L 240.165803 152.833701 
L 241.39301 159.956713 
L 242.83936 169.735332 
L 244.646081 183.575441 
L 247.524172 207.622935 
L 250.689586 233.521418 
L 252.476827 246.352347 
L 253.913437 255.141718 
L 255.130904 261.290204 
L 256.182795 265.523793 
L 257.088591 268.30961 
L 257.867769 270.042038 
L 258.534941 271.02573 
L 259.099846 271.494061 
L 259.586832 271.62852 
L 260.04947 271.525704 
L 260.536456 271.176186 
L 261.086751 270.486487 
L 261.724704 269.302102 
L 262.464924 267.423676 
L 263.31715 264.617382 
L 264.305733 260.551355 
L 265.455022 254.829089 
L 266.818585 246.844422 
L 268.523038 235.448969 
L 271.172246 216.005826 
L 274.381488 192.842577 
L 276.095681 182.066711 
L 277.468984 174.771356 
L 278.623142 169.769362 
L 279.611725 166.409124 
L 280.459082 164.259908 
L 281.179822 162.988038 
L 281.793425 162.319653 
L 282.314501 162.056194 
L 282.782008 162.059553 
L 283.249516 162.29037 
L 283.765721 162.809187 
L 284.354975 163.738048 
L 285.036757 165.254972 
L 285.825675 167.589097 
L 286.73147 171.006738 
L 287.773622 175.858404 
L 288.976479 182.573541 
L 290.39848 191.842808 
L 292.171112 204.963939 
L 294.946936 227.429823 
L 298.195137 253.253285 
L 299.967769 265.591933 
L 301.38977 274.01085 
L 302.592627 279.873208 
L 303.625039 283.869926 
L 304.516224 286.493947 
L 305.280793 288.108064 
L 305.933355 289.008472 
L 306.48365 289.421711 
L 306.965767 289.522209 
L 307.428405 289.38902 
L 307.920261 289.001831 
L 308.480296 288.255557 
L 309.127988 286.993177 
L 309.877948 285.00977 
L 310.744784 282.046784 
L 311.743107 277.796036 
L 312.902135 271.835196 
L 314.275437 263.539421 
L 315.984761 251.756947 
L 318.59014 232.028025 
L 321.969827 206.761818 
L 323.7035 195.46631 
L 325.096282 187.777469 
L 326.26992 182.473982 
L 327.277982 178.885495 
L 328.144818 176.568526 
L 328.885038 175.178721 
L 329.508381 174.440453 
L 330.039197 174.127845 
L 330.511574 174.095837 
L 330.979081 174.292826 
L 331.485547 174.762305 
L 332.065061 175.62383 
L 332.737103 177.050306 
L 333.511412 179.249373 
L 334.402597 182.488565 
L 335.430139 187.108741 
L 336.623257 193.556416 
L 338.035518 202.483555 
L 339.79841 215.149141 
L 342.598583 237.140551 
L 345.729908 261.229956 
L 347.47819 272.992788 
L 348.880711 281.001003 
L 350.064089 286.546595 
L 351.081891 290.318273 
L 351.958467 292.771122 
L 352.708427 294.258606 
L 353.346379 295.068538 
L 353.886935 295.422461 
L 354.359312 295.480517 
L 354.821949 295.309991 
L 355.323545 294.871624 
L 355.89332 294.056189 
L 356.550752 292.701629 
L 357.315321 290.58209 
L 358.196767 287.439596 
L 359.209699 282.957368 
L 360.383337 276.701322 
L 361.771249 268.029105 
L 363.495182 255.754996 
L 366.110301 235.313732 
L 369.563036 208.640439 
L 371.316188 196.821473 
L 372.72358 188.761863 
L 373.916697 183.150301 
L 374.939369 179.343743 
L 375.820815 176.861685 
L 376.575644 175.35045 
L 377.218467 174.521891 
L 377.763892 174.15404 
L 378.241139 174.085981 
L 378.703776 174.246203 
L 379.205373 174.670538 
L 379.775147 175.466134 
L 380.432579 176.792216 
L 381.192278 178.855432 
L 382.068854 181.915481 
L 383.081787 186.303705 
L 384.260294 192.454467 
L 385.657946 201.001774 
L 387.406228 213.167818 
L 390.211272 234.51214 
L 393.259808 257.193584 
L 394.983741 268.396357 
L 396.366783 276.006538 
L 397.535552 281.266389 
L 398.538744 284.817313 
L 399.395841 287.091928 
L 400.131191 288.459769 
L 400.749664 289.181227 
L 401.275609 289.481556 
L 401.743116 289.504976 
L 402.205754 289.30193 
L 402.71222 288.822023 
L 403.291734 287.944612 
L 403.963776 286.493947 
L 404.738085 284.258607 
L 405.62927 280.965456 
L 406.651942 276.289721 
L 407.83532 269.78561 
L 409.232972 260.792197 
L 410.961774 248.124004 
L 413.542804 227.349632 
L 417.165985 198.438805 
L 418.938616 186.09774 
L 420.365487 177.645854 
L 421.573214 171.755935 
L 422.610496 167.736588 
L 423.506552 165.094367 
L 424.275991 163.466072 
L 424.933423 162.55516 
L 425.488587 162.134808 
L 425.975574 162.030149 
L 426.438211 162.159048 
L 426.930068 162.538777 
L 427.490103 163.272603 
L 428.137795 164.514871 
L 428.887754 166.466626 
L 429.754591 169.380796 
L 430.757783 173.579945 
L 431.926551 179.486376 
L 433.314463 187.715008 
L 435.057876 199.48221 
L 437.931097 220.665128 
L 440.814058 241.343597 
L 442.513642 251.974267 
L 443.872335 259.146788 
L 445.021623 264.088373 
L 446.000467 267.38128 
L 446.842954 269.488992 
L 447.558824 270.726644 
L 448.162688 271.363965 
L 448.678893 271.60877 
L 449.141531 271.591097 
L 449.609038 271.344717 
L 450.125244 270.805893 
L 450.719368 269.840892 
L 451.406019 268.271198 
L 452.194937 265.878994 
L 453.100733 262.383358 
L 454.142884 257.425783 
L 455.345741 250.56517 
L 456.762873 241.124009 
L 458.516025 227.848626 
L 461.150623 205.970259 
L 464.749454 176.374137 
L 466.541565 163.483152 
L 467.983046 154.638408 
L 469.205382 148.440324 
L 470.262143 144.163169 
L 471.177678 141.327098 
L 471.961727 139.567179 
L 472.633769 138.561203 
L 473.203543 138.075529 
L 473.6954 137.927989 
L 474.158037 138.018402 
L 474.645024 138.351986 
L 475.190449 139.012613 
L 475.823531 140.152871 
L 476.558881 141.96707 
L 477.411108 144.700446 
L 478.394821 148.644782 
L 479.54411 154.223785 
L 480.912542 162.035242 
L 482.631605 173.227 
L 485.456128 193.340531 
L 488.32935 213.253265 
L 490.004584 223.35963 
L 491.348667 230.18712 
L 492.478476 234.845385 
L 493.44271 237.940813 
L 494.265717 239.891643 
L 494.966978 241.027038 
L 495.556232 241.594962 
L 496.062698 241.796207 
L 496.525336 241.74586 
L 496.997713 241.462548 
L 497.523658 240.87111 
L 498.127522 239.834702 
L 498.823913 238.170021 
L 499.627441 235.636719 
L 500.547846 231.955773 
L 501.604607 226.758976 
L 502.822073 219.593807 
L 504.253814 209.76488 
L 506.021576 195.984108 
L 508.656174 173.468723 
L 512.347533 142.190726 
L 514.159124 128.756268 
L 515.620084 119.500621 
L 516.85703 113.009964 
L 517.928401 108.506471 
L 518.858545 105.498219 
L 519.662073 103.601704 
L 520.348724 102.507998 
L 520.933108 101.963157 
L 521.434705 101.778837 
L 521.897342 101.83989 
L 522.379459 102.137489 
L 522.920014 102.751488 
L 523.543357 103.820253 
L 524.268967 105.536756 
L 525.111454 108.139414 
L 526.085428 111.911803 
L 527.224976 117.26476 
L 528.583669 124.776435 
L 530.302732 135.617731 
L 533.249002 155.903836 
L 535.917689 173.647014 
L 537.558834 183.121802 
L 538.873698 189.485936 
L 539.979158 193.805611 
L 540.919042 196.644429 
L 541.72257 198.416494 
L 542.404351 199.423393 
L 542.978996 199.907014 
L 543.470852 200.050697 
L 543.93349 199.955736 
L 544.415606 199.6179 
L 544.956162 198.948511 
L 545.579505 197.79614 
L 546.295375 195.974578 
L 547.118383 193.234907 
L 548.058267 189.289922 
L 549.134507 183.761544 
L 550.376324 176.154996 
L 551.837284 165.745831 
L 553.644004 151.166437 
L 556.400349 126.857402 
L 559.926132 96.155803 
L 561.757202 82.149099 
L 563.232772 72.482862 
L 564.489198 65.644878 
L 565.575178 60.891088 
L 566.519932 57.688846 
L 567.33807 55.645279 
L 568.039331 54.44351 
L 568.638324 53.821998 
L 569.15453 53.585585 
L 569.622037 53.609133 
L 570.099284 53.86391 
L 570.6301 54.417231 
L 571.238833 55.39448 
L 571.949834 56.985353 
L 572.777711 59.420592 
L 573.737075 62.975331 
L 574.862014 68.047825 
L 576.206097 75.198486 
L 577.910551 85.559236 
L 580.87143 105.215361 
L 583.457329 121.744878 
L 585.069255 130.673458 
L 586.36464 136.668696 
L 587.45062 140.7063 
L 588.375895 143.345282 
L 589.159943 144.959267 
L 589.822245 145.855689 
L 590.38228 146.2694 
L 590.869267 146.367548 
L 591.331904 146.232533 
L 591.823761 145.843181 
L 592.378925 145.098238 
L 593.016878 143.842643 
L 593.752228 141.869484 
L 594.594715 138.929195 
L 595.554079 134.726175 
L 596.649799 128.872228 
L 597.730909 122.08289 
L 597.730909 122.08289 
" clip-path="url(#pe94c83cabd)" style="fill: none; stroke: #1f77b4; stroke-width: 1.5; stroke-linecap: square"/>
   </g>
   <g id="patch_3">
    <path d="M 86.4 307.584 
L 86.4 41.472 
" style="fill: none; stroke: #000000; stroke-width: 0.8; stroke-linejoin: miter; stroke-linecap: square"/>
   </g>
   <g id="patch_4">
    <path d="M 622.08 307.584 
L 622.08 41.472 
" style="fill: none; stroke: #000000; stroke-width: 0.8; stroke-linejoin: miter; stroke-linecap: square"/>
   </g>
   <g id="patch_5">
    <path d="M 86.4 307.584 
L 622.08 307.584 
" style="fill: none; stroke: #000000; stroke-width: 0.8; stroke-linejoin: miter; stroke-linecap: square"/>
   </g>
   <g id="patch_6">
    <path d="M 86.4 41.472 
L 622.08 41.472 
" style="fill: none; stroke: #000000; stroke-width: 0.8; stroke-linejoin: miter; stroke-linecap: square"/>
   </g>
  </g>
 </g>
 <defs>
  <clipPath id="pe94c83cabd">
   <rect x="86.4" y="41.472" width="535.68" height="266.112"/>
  </clipPath>
 </defs>
</svg>
